<svg class="svg-icon" style="width: 1em;height: 1em;vertical-align: middle;fill: currentColor;overflow: hidden;" viewBox="0 0 1024 1024" version="1.1" xmlns="http://www.w3.org/2000/svg"><path d="M999.381333 796.501333c-16.768-19.072-35.157333-63.146667-40.832-78.549333a21.333333 21.333333 0 0 0-18.816-13.909333 20.266667 20.266667 0 0 0-20.266666 11.733333c-8.917333 17.792-34.346667 67.2-44.714667 82.261333-29.184 42.453333-28.629333 96.554667 2.304 132.650667 16.213333 18.901333 38.058667 29.312 61.482667 29.312s45.269333-10.410667 61.525333-29.354667c31.957333-37.248 31.658667-97.450667-0.682667-134.144z"  /><path d="M721.450667 169.173333a21.333333 21.333333 0 0 0-20.821334 35.626667l219.306667 219.306667c12.074667 12.074667 18.730667 28.117333 18.730667 45.226666s-6.656 33.152-18.730667 45.269334l-80.384 80.384a21.333333 21.333333 0 0 0-2.176 27.605333c8.362667 11.562667 17.706667 19.712 25.941333 26.922667 16.170667 14.165333 27.818667 24.362667 32.981334 57.770666 5.333333 34.816 18.645333 52.48 39.424 52.48h0.213333c8.789333 0 34.730667-0.554667 63.146667-77.866666 15.573333-42.496 24.917333-90.069333 24.917333-127.232 0-185.472-115.925333-333.184-302.549333-385.493334z"  /><path d="M791.509333 356.010667c-74.24 82.432-181.418667 134.656-300.842666 134.656s-226.602667-52.224-300.842667-134.656l-121.088 121.088C24.405333 521.429333 0 580.352 0 643.029333s24.405333 121.642667 68.736 165.930667l82.304 82.304C195.370667 935.594667 254.293333 960 316.970667 960s121.6-24.405333 165.930666-68.736l406.869334-406.869333a21.333333 21.333333 0 0 0 0-30.165334l-98.261334-98.218666z"  /><path d="M490.666667 448a361.728 361.728 0 0 0 270.805333-122.026667l-255.744-255.744a21.333333 21.333333 0 0 0-30.165333 0L219.861333 325.973333A361.728 361.728 0 0 0 490.666667 448z"  /></svg>